<?xml version="1.0" standalone="no"?>
<!DOCTYPE svg PUBLIC "-//W3C//DTD SVG 20010904//EN"
 "http://www.w3.org/TR/2001/REC-SVG-20010904/DTD/svg10.dtd">
<svg version="1.0" xmlns="http://www.w3.org/2000/svg"
 width="1024.000000pt" height="1024.000000pt" viewBox="0 0 1024.000000 1024.000000"
 preserveAspectRatio="xMidYMid meet">

<g transform="translate(0.000000,1024.000000) scale(0.100000,-0.100000)"
fill="#000000" stroke="none">
<path d="M2550 7705 c0 -3 143 -195 318 -428 1440 -1912 1496 -1988 1484
-2007 -14 -23 -447 -585 -866 -1125 -650 -838 -779 -1003 -858 -1105 -45 -58
-118 -152 -162 -210 -44 -58 -87 -112 -95 -120 -13 -13 70 -15 745 -18 l759
-2 18 22 c28 36 421 560 826 1101 204 274 376 495 380 493 4 -3 279 -367 612
-810 l604 -805 768 -1 c423 0 766 3 763 8 -3 4 -170 224 -373 489 -202 265
-530 693 -727 952 l-360 471 -50 0 c-201 1 -350 135 -350 315 0 97 17 140 82
202 l55 53 -78 0 -77 0 7 83 c10 114 21 168 47 232 15 37 174 257 474 658 721
963 1154 1544 1154 1551 0 3 -325 6 -722 6 l-723 -1 -180 -241 c-99 -133 -335
-447 -525 -698 -190 -251 -352 -467 -361 -480 -15 -23 -22 -14 -527 659 -282
375 -524 700 -538 721 l-27 40 -748 0 c-412 0 -749 -2 -749 -5z m3152 -1864
c80 -31 160 -106 200 -188 28 -57 33 -79 36 -159 9 -203 -82 -353 -255 -416
-49 -19 -85 -23 -235 -26 l-178 -4 0 -214 0 -215 -127 3 -128 3 -3 623 -2 623
317 -3 c304 -3 321 -5 375 -27z"/>
<path d="M5272 5463 l3 -208 131 0 c120 1 136 3 180 26 65 33 94 88 94 176 0
78 -16 119 -63 160 -49 43 -91 53 -230 53 l-117 0 2 -207z"/>
<path d="M6300 5531 c-97 -32 -180 -110 -205 -194 -26 -89 -29 -87 83 -87 l99
0 12 39 c6 22 26 52 43 66 29 25 38 27 96 23 59 -4 67 -7 98 -40 33 -36 54
-90 54 -140 l0 -26 -147 -5 c-170 -5 -209 -14 -265 -65 -57 -51 -78 -101 -78
-188 0 -126 65 -214 183 -249 99 -29 207 -12 278 44 41 33 43 33 54 -16 l7
-33 85 0 85 0 -4 318 -3 317 -26 55 c-36 77 -78 121 -146 155 -51 25 -70 29
-168 32 -60 1 -121 -1 -135 -6z m280 -552 c0 -100 -30 -143 -117 -169 -55 -17
-109 -5 -145 30 -23 23 -28 37 -28 77 0 94 45 122 193 123 l97 0 0 -61z"/>
<path d="M6780 5525 c0 0 35 -97 79 -215 43 -118 118 -321 166 -450 82 -224
86 -237 75 -274 -17 -57 -60 -96 -105 -96 -25 0 -37 -5 -41 -17 -4 -10 -19
-46 -35 -81 l-28 -63 27 -11 c15 -6 61 -13 103 -16 92 -5 160 20 212 77 36 40
30 26 267 666 82 220 155 417 164 438 l16 37 -90 2 c-49 1 -104 2 -122 2 -30
1 -32 -1 -54 -69 -46 -148 -175 -551 -180 -565 -3 -8 -41 95 -85 230 -44 135
-92 281 -107 324 l-27 79 -117 1 c-65 1 -118 1 -118 1z"/>
</g>
</svg>
